<?xml version="1.0" encoding="iso-8859-1"?>
<!-- Uploaded to: SVG Repo, www.svgrepo.com, Generator: SVG Repo Mixer Tools -->
<!DOCTYPE svg PUBLIC "-//W3C//DTD SVG 1.1//EN" "http://www.w3.org/Graphics/SVG/1.1/DTD/svg11.dtd">
<svg fill="currentColor" version="1.1" id="Capa_1" xmlns="http://www.w3.org/2000/svg" xmlns:xlink="http://www.w3.org/1999/xlink" 
	 width="800px" height="800px" viewBox="0 0 441.908 441.908"
	 xml:space="preserve">
<g>
	<path d="M422.916,75.022H18.994C8.505,75.022,0,83.527,0,94.015v253.879c0,10.488,8.505,18.992,18.994,18.992h403.922
		c10.489,0,18.992-8.504,18.992-18.992V94.016C441.908,83.527,433.405,75.022,422.916,75.022z M44.288,216.613
		c0-6.74,5.462-12.203,12.204-12.203H117.5c6.739,0,12.205,5.463,12.205,12.203c0,6.738-5.466,12.202-12.205,12.202H56.492
		C49.75,228.814,44.288,223.351,44.288,216.613z M125.641,311.53c-1.225,0-2.47-0.187-3.694-0.576
		c-6.426-2.039-9.981-8.899-7.941-15.322l49.761-156.737c2.04-6.422,8.901-9.979,15.323-7.938c6.425,2.039,9.978,8.899,7.941,15.322
		l-49.765,156.738C135.617,308.212,130.814,311.53,125.641,311.53z M177.705,216.613c0-6.74,5.462-12.203,12.2-12.203h61.011
		c6.739,0,12.201,5.463,12.201,12.203c0,6.738-5.462,12.202-12.201,12.202h-61.011C183.167,228.814,177.705,223.351,177.705,216.613
		z M261.648,311.53c-1.223,0-2.467-0.187-3.697-0.576c-6.42-2.039-9.977-8.899-7.938-15.322l49.762-156.737
		c2.039-6.422,8.899-9.979,15.321-7.938c6.424,2.039,9.979,8.899,7.939,15.322l-49.762,156.738
		C271.627,308.212,266.824,311.53,261.648,311.53z M385.416,228.814h-61.008c-6.741,0-12.203-5.464-12.203-12.202
		c0-6.74,5.462-12.203,12.203-12.203h61.008c6.742,0,12.205,5.463,12.205,12.203C397.621,223.351,392.158,228.814,385.416,228.814z"
		/>
</g>
</svg>