<?xml version="1.0" encoding="utf-8"?>
<!-- Uploaded to: SVG Repo, www.svgrepo.com, Generator: SVG Repo Mixer Tools -->
<svg fill="#9333ea" version="1.1" id="Layer_1" xmlns="http://www.w3.org/2000/svg" xmlns:xlink="http://www.w3.org/1999/xlink" 
	 width="800px" height="800px" viewBox="0 0 256 158" xml:space="preserve">
<path d="M54.4,155.7c-14.7,0-26.6-11.9-26.6-26.6s11.9-26.6,26.6-26.6S81,114.5,81,129.2S69.1,155.7,54.4,155.7z M54.4,120.3
	c-4.9,0-8.9,4-8.9,8.9s4,8.9,8.9,8.9s8.9-4,8.9-8.9S59.3,120.3,54.4,120.3z M186.2,155.7c-14.7,0-26.6-11.9-26.6-26.6
	s11.9-26.6,26.6-26.6s26.6,11.9,26.6,26.6S200.8,155.7,186.2,155.7z M186.2,120.3c-4.9,0-8.9,4-8.9,8.9s4,8.9,8.9,8.9s8.9-4,8.9-8.9
	S191,120.3,186.2,120.3z M233.3,61.3H207l-47-47.9c-6.9-7-16.5-11.1-26.3-11.1H39.6c-7.9,0-15,4.7-18,12L2,61.3l0,62.9h16.3
	c2.4-17.8,17.7-31.4,36.1-31.4s33.6,13.7,36.1,31.4h59.6c2.4-17.8,17.7-31.4,36.1-31.4s33.6,13.7,36.1,31.4H254V81.9
	C254,70.5,244.7,61.3,233.3,61.3z M18,61.3l17.2-41.3c0.7-1.8,2.5-2.9,4.4-2.9h50.9v44.2H18z M105.3,61.3V17h28.5
	c5.9,0,11.6,2.4,15.7,6.6l36.8,37.6H105.3z M129.5,30.2c7.5,0,13.6,6.1,13.6,13.6s-6.1,13.6-13.6,13.6s-13.6-6.1-13.6-13.6
	S122,30.2,129.5,30.2z M58,30.2c7.5,0,13.6,6.1,13.6,13.6S65.4,57.4,58,57.4s-13.6-6.1-13.6-13.6S50.5,30.2,58,30.2z"/>
</svg>